/* XPM */
static char *_1fb04c831dc405dfa02cf2be7c9c1efuS42YsqdC2wL4BPO[] = {
/* columns rows colors chars-per-pixel */
"32 32 43 1 ",
"  c #1B1C37",
". c #1C1C36",
"X c #1D1B38",
"o c #1B1C38",
"O c #1D1C39",
"+ c #211C2B",
"@ c #201C2C",
"# c #2A133F",
"$ c #2A143E",
"% c #131E42",
"& c #171C42",
"* c #1A1A42",
"= c #273B6F",
"- c #363367",
"; c #363468",
": c #32356E",
"> c #29377F",
", c #2C357F",
"< c #333474",
"1 c #31337F",
"2 c #402C7B",
"3 c #9BBC0F",
"4 c #2E3480",
"5 c #303380",
"6 c #323481",
"7 c #415EA0",
"8 c #455CA0",
"9 c #495BA1",
"0 c #557CB8",
"q c #597BBA",
"w c #5C79BA",
"e c #9658A9",
"r c #A750A3",
"t c #A651A4",
"y c #66A3BC",
"u c #7FCFB4",
"i c #6F9BC9",
"p c #6B9AD4",
"a c #7397D6",
"s c #81CEB4",
"d c #93C0CF",
"f c #8CC3D1",
"g c #A9FCC6",
/* pixels */
"33333333333333333333333333333333",
"33333333333333333333333333333333",
"33333333333333333333333333333333",
"33333333333333333333333333333333",
"33333333333333333333333333333333",
"33333333333333333333333333333333",
"33333333333333333333333333333333",
"3333333333;;;;333333333333333333",
"3333333333=>42333333333333333333",
"3333333335sp8t533333333333333333",
"333333335s87p8e<33:,4*3333333333",
"333333331s8pp85X359q85 333333333",
"333333335q774*OO*4fy785*+3333333",
"33333333-w794%%%&<di895*@3333333",
"3333333335018ppp8.<9855*+3333333",
"33333333335pgps16p%<55t#+3333333",
"3333333335pgss5856a&ttO333333333",
"3333333335pups5885a7Oo3333333333",
"333333333O8pp8p55p7&333333333333",
"333333333O88588p888&333333333333",
"333333333O81558588e$333333333333",
"3333333333O855555r$3333333333333",
"33333333333X855ttO33333333333333",
"333333333333OOOOO333333333333333",
"33333333333333333333333333333333",
"33333333333333333333333333333333",
"33333333333333333333333333333333",
"33333333333333333333333333333333",
"33333333333333333333333333333333",
"33333333333333333333333333333333",
"33333333333333333333333333333333",
"33333333333333333333333333333333"
};
