/* XPM */
static char *e8a16e7d41224b0fd15db6b6fefeba92b2kImzFOOgDkvzmw[] = {
/* columns rows colors chars-per-pixel */
"32 32 8 1 ",
"  c black",
". c #BF0000",
"X c #E50000",
"o c #E43F3E",
"O c #9ABC0F",
"+ c #E8B2B2",
"@ c #D8D6D6",
"# c white",
/* pixels */
"OOOOOOOOOOOOOOOOOOOOOOOOOOOOOOOO",
"OOOOOOOOOOOOOOOOOOOOOOOOOOOOOOOO",
"OOOOOOOOOOOOOOOOOOOOOOOOOOOOOOOO",
"OOOOOOOOOOOOOOOOOOOOOOOOOOOOOOOO",
"OOOOOOOOOOOOOOOOOOOOOOOOOOOOOOOO",
"OOOOOOOOOOOOOOOOOOOOOOOOOOOOOOOO",
"OOOOOOOOOOOO       OOOOOOOOOOOOO",
"OOOOOOOOOO  .......  OOOOOOOOOOO",
"OOOOOOOOO XXXX....... OOOOOOOOOO",
"OOOOOOOO XXXXXXX...... OOOOOOOOO",
"OOOOOOO XXXoXXXXX...... OOOOOOOO",
"OOOOOOO XXo+oXXXX...... OOOOOOOO",
"OOOOOO XXXXoXXXXXX...... OOOOOOO",
"OOOOOO XXXXXXXXXXX...... OOOOOOO",
"OOOOOO  XXXXXX   ......  OOOOOOO",
"OOOOOO #   XX ### ..   @ OOOOOOO",
"OOOOOO ####   ###   @@@@ OOOOOOO",
"OOOOOO ###### ### @@@@@@ OOOOOOO",
"OOOOOOO ######   @@@@@@ OOOOOOOO",
"OOOOOOO #########@@@@@@ OOOOOOOO",
"OOOOOOOO ####@@@@@@@@@ OOOOOOOOO",
"OOOOOOOOO @@@@@@@@@@@ OOOOOOOOOO",
"OOOOOOOOOO  @@@@@@@  OOOOOOOOOOO",
"OOOOOOOOOOOO       OOOOOOOOOOOOO",
"OOOOOOOOOOOOOOOOOOOOOOOOOOOOOOOO",
"OOOOOOOOOOOOOOOOOOOOOOOOOOOOOOOO",
"OOOOOOOOOOOOOOOOOOOOOOOOOOOOOOOO",
"OOOOOOOOOOOOOOOOOOOOOOOOOOOOOOOO",
"OOOOOOOOOOOOOOOOOOOOOOOOOOOOOOOO",
"OOOOOOOOOOOOOOOOOOOOOOOOOOOOOOOO",
"OOOOOOOOOOOOOOOOOOOOOOOOOOOOOOOO",
"OOOOOOOOOOOOOOOOOOOOOOOOOOOOOOOO"
};
