/* XPM */
static char *_79e3fa8ceb544afc1ef85cbb25a184bU8fSDtOLRMZ1Ng3v[] = {
/* columns rows colors chars-per-pixel */
"32 32 14 1 ",
"  c #020302",
". c #080809",
"X c #090809",
"o c #0B0B0A",
"O c #6F6F6E",
"+ c #7A7B7A",
"@ c #BE0001",
"# c #E40101",
"$ c #9BBC0E",
"% c #9BBD0F",
"& c #898989",
"* c #D8D6D6",
"= c #F7F6F7",
"- c white",
/* pixels */
"%%%%%%%%%%%%%%%%%%%%%%%%%%%%%%%%",
"%%%%%%%%%%%%%%%%%%%%%%%%%%%%%%%%",
"%%%%%%%%%%%%%%%%%%%%%%%%%%%%%%%%",
"%%%%%%%%%%%%%%%%%%%%%%%%%%%%%%%%",
"%%%%%%%%%%%%%%%%%%%%%%%%%%%%%%%%",
"%%%%%%%%%%%####oo@@@@%%%%%%%%%%%",
"%%%%%%%%%%####o-*o@@@@%%%%%%%%%%",
"%%%%%%%%%###   -*   @@@%%%%%%%%%",
"%%%%%%%%##  &&+ooOOO  @@%%%%%%%%",
"%%%%%%%%# &&&&&OOOOOOO @%%%%%%%%",
"%%%%%%%# &&&&&&+OOOOOOO @%%%%%%%",
"%%%%%%%  &&&&&&+OOOOOOO  %%%%%%%",
"%%%%%%%o&&&&&&&&OOOOOOOOo%%%%%%%",
"%%%%%%%o&&&&&&&&OOOOOOOOo%%%%%%%",
"%%%%%%% o&&&&&&&OOOOOOOo %%%%%%%",
"%%%%%%%%o&&&&&&&OOOOOOOo%%%%%%%%",
"%%%%%%%%%%o&&&++OOOOOo%%%%%%%%%%",
"%%%%%%%%%%%oo      oo%%%%%%%%%%%",
"%%%%%%%%%%o==oooooo**o%%%%%%%%%%",
"%%%%%%%%%o=          *o%%%%%%%%%",
"%%%%%%%%o=            *o%%%%%%%%",
"%%%%%%%%o=            *o%%%%%%%%",
"%%%%%%%%o=            *o%%%%%%%%",
"%%%%%%%%o=            *o%%%%%%%%",
"%%%%%%%%o==          **o%%%%%%%%",
"%%%%%%%%o==*        ***o%%%%%%%%",
"%%%%%%%%%o*==*********o%%%%%%%%%",
"%%%%%%%%%%%oo******oo%%%%%%%%%%%",
"%%%%%%%%%%%%%oooooo%%%%%%%%%%%%%",
"%%%%%%%%%%%%%%%%%%%%%%%%%%%%%%%%",
"%%%%%%%%%%%%%%%%%%%%%%%%%%%%%%%%",
"%%%%%%%%%%%%%%%%%%%%%%%%%%%%%%%%"
};
