/* XPM */
static char *_79ca5b8dfce472ae99d188c85717a5dg92C8i3WpNKnAum3[] = {
/* columns rows colors chars-per-pixel */
"32 32 32 1 ",
"  c black",
". c #45432E",
"X c #404137",
"o c #494533",
"O c #494537",
"+ c #4C493A",
"@ c gray25",
"# c #4D4440",
"$ c #554D40",
"% c #5A4940",
"& c #7C634A",
"* c #7C654A",
"= c #786D4E",
"- c #77745B",
"; c #7F7158",
": c #777561",
"> c #9BBC0F",
", c #908A64",
"< c #9B9573",
"1 c #9E9673",
"2 c #D78545",
"3 c #D78D55",
"4 c #C19860",
"5 c #C7956E",
"6 c #AE9C87",
"7 c #B2A582",
"8 c #B6A786",
"9 c #B6A887",
"0 c #D7CF97",
"q c #DFD69F",
"w c #DFDA9E",
"e c #E9DFA9",
/* pixels */
">>>>>>>>>>>>>>>>>>>>>>>>>>>>>>>>",
">>>>>>>>>>>>>>>>>>>>>>>>>>>>>>>>",
">>>>>>>>>>>>>>>>>>>>>>>>>>>>>>>>",
">>>>>>>>>>>>>>>>>>>>>>>>>>>>>>>>",
">>>>>>>>>>>>> >>>>>>>>>>>>>>>>>>",
">>>>>>>>>>>> @>>>>>>>>>>>>>>>>>>",
">>>>>>>>>>>> @ >>>>>>>>>>>>>>>>>",
">>>>>>>>>>>> q >>>>>>>>>>>>>>>>>",
">>>>>>>>>>> ww >>>>>>>>>>>>>>>>>",
">>>>>>>>>>> ww >>>>>>>>>>>>>>>>>",
">>>>>>>>>>> www  >>     >>>>>>>>",
">>>>>>>>>> qwwwqq  qqq@@ >>>>>>>",
">>>>>>>>> -Xwwwwwqwwq8  @ >>>>>>",
">>>>>>>>>  ,ww= 6wq988>>  >>>>>>",
">>>>>>>> 5.0ww $$w998 >>>>>>>>>>",
">>>>>>>> 3wwww o w8; >>>>>>>>>>>",
">>>>>>>>> @@:q42qq88 >  & >>>>>>",
">>>>>>>>>>qq@@42q98 >>%&& >>>>>>",
">>>>>>>>>> qq928888 > %%* >>>>>>",
">>>>>>>>>>qq998888 > %%%* >>>>>>",
">>>>>>>>> @qww78 >>> # >>>>>>>>>",
">>>>>>>>> @q@q888 > %%>>>>>>>>>>",
">>>>>>>>> qq@qq88 > % >>>>>>>>>>",
">>>>>>>> 8wwww9888 # >>>>>>>>>>>",
">>>>>>> @Oe<@81@q<@ >>>>>>>>>>>>",
">>>>>>>>   +@@ @@e >>>>>>>>>>>>>",
">>>>>>>>>>> @   @ >>>>>>>>>>>>>>",
">>>>>>>>>>>> >>> >>>>>>>>>>>>>>>",
">>>>>>>>>>>>>>>>>>>>>>>>>>>>>>>>",
">>>>>>>>>>>>>>>>>>>>>>>>>>>>>>>>",
">>>>>>>>>>>>>>>>>>>>>>>>>>>>>>>>",
">>>>>>>>>>>>>>>>>>>>>>>>>>>>>>>>"
};
