/* XPM */
static char *_012044d994e4eb3c5c08b96b04e7d69iaYyH7JaWwLrNdOA[] = {
/* columns rows colors chars-per-pixel */
"32 32 3 1 ",
"  c #0F380F",
". c #306230",
"X c #8BAC0F",
/* pixels */
"..X ..X ..X ..X ..X ..X ..X ..X ",
"................................",
"... ... ... ... ... ... ... ... ",
"                                ",
"X .XX .XX .XX .XX .XX .XX .XX .X",
"X...X...X...X...X...X...X...X...",
". ... ... ... ... ... ... ... ..",
"                                ",
".XX .XX .XX .XX .XX .XX .XX .XX ",
"................................",
"... ... ... ... ... ... ... ... ",
"                                ",
"X ..X ..X ..X ..X ..X ..X ..X ..",
"................................",
". ... ... ... ... ... ... ... ..",
"                                ",
"..X ..X ..X ..X ..X ..X ..X ..X ",
"................................",
"... ... ... ... ... ... ... ... ",
"                                ",
"X .XX .XX .XX .XX .XX .XX .XX .X",
"X...X...X...X...X...X...X...X...",
". ... ... ... ... ... ... ... ..",
"                                ",
".XX .XX .XX .XX .XX .XX .XX .XX ",
"................................",
"... ... ... ... ... ... ... ... ",
"                                ",
"X ..X ..X ..X ..X ..X ..X ..X ..",
"................................",
". ... ... ... ... ... ... ... ..",
"                                "
};
